<?xml version="1.0" encoding="UTF-8" standalone="no"?>
<!DOCTYPE svg PUBLIC "-//W3C//DTD SVG 1.1//EN" "http://www.w3.org/Graphics/SVG/1.1/DTD/svg11.dtd">
<svg xmlns="http://www.w3.org/2000/svg" version="1.1" viewBox="0 0 500 500">
<g stroke-width="2.00" fill="none" stroke-linecap="butt">
<path stroke="#523178" vector-effect="non-scaling-stroke" d="
  M 244.75 327.79
  L 244.29 335.50"
/>
<path stroke="#702ebc" vector-effect="non-scaling-stroke" d="
  M 244.04 268.75
  Q 244.83 267.92 244.82 266.75
  Q 244.75 244.38 244.59 222.00
  Q 244.48 206.00 244.71 190.00
  Q 244.76 186.75 244.52 183.51
  Q 244.49 183.17 244.33 183.05
  Q 244.11 182.89 243.75 183.00"
/>
<!-- dot -->
<!-- <path stroke="#702ebc" vector-effect="non-scaling-stroke" d="
  M 243.75 183.00
  Q 243.66 183.98 243.38 184.90
  Q 243.06 185.98 243.06 186.77
  Q 243.03 225.00 243.00 263.23
  Q 243.00 264.15 243.32 265.71
  Q 243.58 266.97 243.54 268.25"
/> -->
</g>
<path fill="#ffff" d="
  M 198.75 162.28
  A 1.39 1.31 -11.6 0 1 199.62 161.04
  L 243.85 143.12
  A 0.79 0.79 -11.4 0 1 244.94 143.84
  L 245.00 157.29
  A 1.85 1.83 -11.3 0 1 243.84 159.01
  L 200.06 176.68
  A 0.98 0.95 -11.1 0 1 198.72 175.81
  L 198.75 162.28
  Z"
/>
<!-- u -->
<path fill="#702ebc" d="
  M 244.75 327.79
  L 244.29 335.50
  Q 243.80 336.10 243.14 335.97
  Q 242.25 335.81 242.21 335.81
  Q 209.83 335.36 184.06 316.69
  Q 165.93 303.55 154.78 283.46
  Q 142.52 261.37 142.21 236.00
  Q 141.89 210.37 142.25 184.98
  A 1.28 1.26 -10.9 0 1 143.05 183.82
  L 174.91 170.97
  A 0.61 0.61 -11.1 0 1 175.75 171.53
  Q 175.75 201.75 175.51 230.50
  Q 175.21 265.56 200.27 286.50
  Q 208.14 293.08 217.24 296.92
  Q 228.93 301.85 241.61 302.47
  Q 243.52 302.56 243.51 304.47
  Q 243.44 316.68 244.75 327.79
  Z"
/>
<!-- b -->
<path fill="#702ebc" d="
  M 244.29 335.50
  L 244.75 327.79
  Q 245.13 327.72 245.06 326.81
  Q 244.68 321.48 244.69 312.95
  Q 244.69 306.02 244.37 299.08
  Q 243.65 283.93 244.04 268.75
  Q 244.83 267.92 244.82 266.75
  Q 244.75 244.38 244.59 222.00
  Q 244.48 206.00 244.71 190.00
  Q 244.76 186.75 244.52 183.51
  Q 244.49 183.17 244.33 183.05
  Q 244.11 182.89 243.75 183.00
  Q 244.18 182.34 244.00 181.75
  Q 243.10 178.76 245.18 177.90
  Q 246.07 177.52 248.49 177.65
  Q 252.24 177.84 255.99 178.05
  Q 259.77 178.25 263.51 178.23
  Q 307.75 178.07 325.25 178.50
  Q 329.10 178.59 334.49 179.84
  Q 339.42 180.97 343.30 182.80
  Q 355.74 188.66 362.67 199.99
  Q 367.80 208.38 368.84 218.82
  Q 371.18 242.47 351.30 258.26
  Q 348.02 260.87 344.83 263.43
  A 0.88 0.88 -53.4 0 0 345.05 264.93
  Q 355.77 269.34 363.71 277.20
  Q 371.14 284.55 374.65 293.75
  Q 380.86 310.03 373.50 327.00
  Q 364.24 348.36 340.75 354.50
  Q 335.38 355.90 325.41 356.00
  Q 319.69 356.05 319.57 356.06
  Q 283.49 356.73 246.17 356.23
  A 1.47 1.46 -0.8 0 1 244.72 354.83
  Q 244.38 347.01 244.75 338.50
  Q 244.84 336.49 244.29 335.50
  Z"
/>
<!-- i -->
<path fill="#ffff" d="
  M 243.75 183.00
  Q 243.66 183.98 243.38 184.90
  Q 243.06 185.98 243.06 186.77
  Q 243.03 225.00 243.00 263.23
  Q 243.00 264.15 243.32 265.71
  Q 243.58 266.97 243.54 268.25
  Q 241.11 268.91 239.00 268.50
  Q 215.73 264.00 209.58 243.16
  Q 208.01 237.84 207.85 228.16
  Q 207.61 213.62 207.76 198.34
  A 2.41 2.40 79.7 0 1 209.28 196.13
  Q 224.60 190.08 240.27 183.54
  Q 241.94 182.85 243.75 183.00
  Z"
/>
<!-- i background -->
<path fill="#1c1c1c" d="
  M 243.75 183.00
  Q 244.11 182.89 244.33 183.05
  Q 244.49 183.17 244.52 183.51
  Q 244.76 186.75 244.71 190.00
  Q 244.48 206.00 244.59 222.00
  Q 244.75 244.38 244.82 266.75
  Q 244.83 267.92 244.04 268.75
  Q 243.89 268.40 243.54 268.25
  Q 243.58 266.97 243.32 265.71
  Q 243.00 264.15 243.00 263.23
  Q 243.03 225.00 243.06 186.77
  Q 243.06 185.98 243.38 184.90
  Q 243.66 183.98 243.75 183.00
  Z"
/>
</svg>
